<?xml version="1.0" encoding="UTF-8" standalone="no"?>
<!-- Created with Inkscape (http://www.inkscape.org/) -->
<svg xmlns:dc="http://purl.org/dc/elements/1.1/" xmlns:cc="http://creativecommons.org/ns#" xmlns:rdf="http://www.w3.org/1999/02/22-rdf-syntax-ns#" xmlns:svg="http://www.w3.org/2000/svg" xmlns="http://www.w3.org/2000/svg" xmlns:sodipodi="http://sodipodi.sourceforge.net/DTD/sodipodi-0.dtd" xmlns:inkscape="http://www.inkscape.org/namespaces/inkscape" width="900" height="600" viewBox="0 0 238.1249945209141 158.7500044858016" version="1.1" id="svg3283" inkscape:version="0.92.3 (2405546, 2018-03-11)" sodipodi:docname="摂政旗.svg">
  <defs id="defs3277"/>
  <sodipodi:namedview id="base" pagecolor="#dedede" bordercolor="#666666" borderopacity="1.0" inkscape:pageopacity="0" inkscape:pageshadow="2" inkscape:zoom="0.2474873734805822" inkscape:cx="665.3912280563941" inkscape:cy="540.8815959884591" inkscape:document-units="mm" inkscape:current-layer="layer1" showgrid="false" units="px" inkscape:window-width="1366" inkscape:window-height="716" inkscape:window-x="-8" inkscape:window-y="-8" inkscape:window-maximized="1"/>
  <metadata id="metadata3280">
    <rdf:RDF>
      <cc:Work rdf:about="">
        <dc:format>image/svg+xml</dc:format>
        <dc:type rdf:resource="http://purl.org/dc/dcmitype/StillImage"/>
        <dc:title/>
      </cc:Work>
    </rdf:RDF>
  </metadata>
  <g inkscape:label="Layer 1" inkscape:groupmode="layer" id="layer1" transform="translate(0,-138.249983215332)">
    <g id="g3746" transform="translate(-165.3122711181641,123.7498411178588)">
      <rect y="14.50014209747314" x="165.3122711181641" height="158.75" width="238.125" id="rect1272" style="opacity:1;fill:#ffffff;fill-opacity:1;stroke:none;stroke-width:0.7937499881;stroke-linecap:round;stroke-linejoin:round;stroke-miterlimit:4;stroke-dasharray:none;stroke-dashoffset:0;stroke-opacity:1;paint-order:markers stroke fill"/>
      <rect style="opacity:1;fill:#bd0029;fill-opacity:1;stroke:none;stroke-width:0.7937499881;stroke-linecap:round;stroke-linejoin:round;stroke-miterlimit:4;stroke-dasharray:none;stroke-dashoffset:0;stroke-opacity:1;paint-order:markers stroke fill" id="rect1274" width="216.9583282470703" height="137.5833282470703" x="175.8955841064453" y="25.08345603942871"/>
      <g id="g1688" style="fill:#dca600;fill-opacity:1;stroke-width:3.5541810989" transform="matrix(0.2813587635915706,0,0,0.2813587635915706,642.5776447650735,-39.50769172627554)">
        <g id="g1520" style="fill:#dca600;fill-opacity:1;stroke-width:3.5541810989">
          <circle style="opacity:1;fill:#dca600;fill-opacity:1;stroke:none;stroke-width:2.8211312294;stroke-linecap:round;stroke-linejoin:round;stroke-miterlimit:4;stroke-dasharray:none;stroke-dashoffset:0;stroke-opacity:1;paint-order:markers stroke fill" id="circle1292" cx="-1273.117919921875" cy="474.0667419433594" r="10.85050487518311"/>
          <g id="g1488" style="fill:#dca600;fill-opacity:1;stroke-width:3.5541810989">
            <g id="g1416" style="fill:#dca600;fill-opacity:1;stroke-width:3.5541810989">
              <g id="g1379" style="opacity:1;fill:#dca600;fill-opacity:1;stroke-width:3.5541810989">
                <path sodipodi:nodetypes="cccsscc" inkscape:connector-curvature="0" id="path1290" d="m -1271.795047289961,460.6353907104378 c -0.879786632294,-0.086651420069 -1.765958631533,-0.086651420069 -2.645745263827,0 l -20.175546071767,-101.4293102984353 c -1.729602447216,-8.6952986885654 1.949024456746,-17.5762896510198 9.320542743056,-22.5017806989637 7.37151828631,-4.9254910479439 16.984233634938,-4.9254910479437 24.355751921248,0 7.37151828631,4.9254910479441 11.050145190272,13.8064820103979 9.320542743056,22.5017806989637 z" style="opacity:1;fill:#dca600;fill-opacity:1;stroke:none;stroke-width:2.8211312294;stroke-linecap:round;stroke-linejoin:round;stroke-miterlimit:4;stroke-dasharray:none;stroke-dashoffset:0;stroke-opacity:1;paint-order:markers stroke fill"/>
                <path style="opacity:1;fill:#dca600;fill-opacity:1;stroke:none;stroke-width:2.8211312294;stroke-linecap:round;stroke-linejoin:round;stroke-miterlimit:4;stroke-dasharray:none;stroke-dashoffset:0;stroke-opacity:1;paint-order:markers stroke fill" d="m -1271.795047289961,487.4980969910573 c -0.879786632294,0.086651420069 -1.765958631533,0.086651420069 -2.645745263827,0 l -20.175546071767,101.4293102984352 c -1.729602447216,8.6952986885652 1.949024456746,17.5762896510198 9.320542743056,22.5017806989633 7.37151828631,4.9254910479441 16.984233634938,4.925491047944 24.355751921248,0 7.37151828631,-4.9254910479442 11.050145190272,-13.8064820103975 9.320542743056,-22.5017806989633 z" id="path1375" inkscape:connector-curvature="0" sodipodi:nodetypes="cccsscc"/>
              </g>
              <g style="opacity:1;fill:#dca600;fill-opacity:1;stroke-width:3.5541810989" id="g1408" transform="rotate(-90,-1273.117919921875,474.0667438507551)">
                <path style="opacity:1;fill:#dca600;fill-opacity:1;stroke:none;stroke-width:2.8211312294;stroke-linecap:round;stroke-linejoin:round;stroke-miterlimit:4;stroke-dasharray:none;stroke-dashoffset:0;stroke-opacity:1;paint-order:markers stroke fill" d="m -1271.795047289961,460.6353907104378 c -0.879786632294,-0.086651420069 -1.765958631533,-0.086651420069 -2.645745263827,0 l -20.175546071767,-101.4293102984353 c -1.729602447216,-8.6952986885654 1.949024456746,-17.5762896510198 9.320542743056,-22.5017806989637 7.37151828631,-4.9254910479439 16.984233634938,-4.9254910479437 24.355751921248,0 7.37151828631,4.9254910479441 11.050145190272,13.8064820103979 9.320542743056,22.5017806989637 z" id="path1404" inkscape:connector-curvature="0" sodipodi:nodetypes="cccsscc"/>
                <path sodipodi:nodetypes="cccsscc" inkscape:connector-curvature="0" id="path1406" d="m -1271.795047289961,487.4980969910573 c -0.879786632294,0.086651420069 -1.765958631533,0.086651420069 -2.645745263827,0 l -20.175546071767,101.4293102984352 c -1.729602447216,8.6952986885652 1.949024456746,17.5762896510198 9.320542743056,22.5017806989633 7.37151828631,4.9254910479441 16.984233634938,4.925491047944 24.355751921248,0 7.37151828631,-4.9254910479442 11.050145190272,-13.8064820103975 9.320542743056,-22.5017806989633 z" style="opacity:1;fill:#dca600;fill-opacity:1;stroke:none;stroke-width:2.8211312294;stroke-linecap:round;stroke-linejoin:round;stroke-miterlimit:4;stroke-dasharray:none;stroke-dashoffset:0;stroke-opacity:1;paint-order:markers stroke fill"/>
              </g>
            </g>
            <g transform="rotate(22.5,-1273.117919921875,474.0667438507473)" id="g1430" style="fill:#dca600;fill-opacity:1;stroke-width:3.5541810989">
              <g style="opacity:1;fill:#dca600;fill-opacity:1;stroke-width:3.5541810989" id="g1422">
                <path style="opacity:1;fill:#dca600;fill-opacity:1;stroke:none;stroke-width:2.8211312294;stroke-linecap:round;stroke-linejoin:round;stroke-miterlimit:4;stroke-dasharray:none;stroke-dashoffset:0;stroke-opacity:1;paint-order:markers stroke fill" d="m -1271.795047289961,460.6353907104378 c -0.879786632294,-0.086651420069 -1.765958631533,-0.086651420069 -2.645745263827,0 l -20.175546071767,-101.4293102984353 c -1.729602447216,-8.6952986885654 1.949024456746,-17.5762896510198 9.320542743056,-22.5017806989637 7.37151828631,-4.9254910479439 16.984233634938,-4.9254910479437 24.355751921248,0 7.37151828631,4.9254910479441 11.050145190272,13.8064820103979 9.320542743056,22.5017806989637 z" id="path1418" inkscape:connector-curvature="0" sodipodi:nodetypes="cccsscc"/>
                <path sodipodi:nodetypes="cccsscc" inkscape:connector-curvature="0" id="path1420" d="m -1271.795047289961,487.4980969910573 c -0.879786632294,0.086651420069 -1.765958631533,0.086651420069 -2.645745263827,0 l -20.175546071767,101.4293102984352 c -1.729602447216,8.6952986885652 1.949024456746,17.5762896510198 9.320542743056,22.5017806989633 7.37151828631,4.9254910479441 16.984233634938,4.925491047944 24.355751921248,0 7.37151828631,-4.9254910479442 11.050145190272,-13.8064820103975 9.320542743056,-22.5017806989633 z" style="opacity:1;fill:#dca600;fill-opacity:1;stroke:none;stroke-width:2.8211312294;stroke-linecap:round;stroke-linejoin:round;stroke-miterlimit:4;stroke-dasharray:none;stroke-dashoffset:0;stroke-opacity:1;paint-order:markers stroke fill"/>
              </g>
              <g transform="rotate(-90,-1273.117919921875,474.0667438507554)" id="g1428" style="opacity:1;fill:#dca600;fill-opacity:1;stroke-width:3.5541810989">
                <path sodipodi:nodetypes="cccsscc" inkscape:connector-curvature="0" id="path1424" d="m -1271.795047289961,460.6353907104378 c -0.879786632294,-0.086651420069 -1.765958631533,-0.086651420069 -2.645745263827,0 l -20.175546071767,-101.4293102984353 c -1.729602447216,-8.6952986885654 1.949024456746,-17.5762896510198 9.320542743056,-22.5017806989637 7.37151828631,-4.9254910479439 16.984233634938,-4.9254910479437 24.355751921248,0 7.37151828631,4.9254910479441 11.050145190272,13.8064820103979 9.320542743056,22.5017806989637 z" style="opacity:1;fill:#dca600;fill-opacity:1;stroke:none;stroke-width:2.8211312294;stroke-linecap:round;stroke-linejoin:round;stroke-miterlimit:4;stroke-dasharray:none;stroke-dashoffset:0;stroke-opacity:1;paint-order:markers stroke fill"/>
                <path style="opacity:1;fill:#dca600;fill-opacity:1;stroke:none;stroke-width:2.8211312294;stroke-linecap:round;stroke-linejoin:round;stroke-miterlimit:4;stroke-dasharray:none;stroke-dashoffset:0;stroke-opacity:1;paint-order:markers stroke fill" d="m -1271.795047289961,487.4980969910573 c -0.879786632294,0.086651420069 -1.765958631533,0.086651420069 -2.645745263827,0 l -20.175546071767,101.4293102984352 c -1.729602447216,8.6952986885652 1.949024456746,17.5762896510198 9.320542743056,22.5017806989633 7.37151828631,4.9254910479441 16.984233634938,4.925491047944 24.355751921248,0 7.37151828631,-4.9254910479442 11.050145190272,-13.8064820103975 9.320542743056,-22.5017806989633 z" id="path1426" inkscape:connector-curvature="0" sodipodi:nodetypes="cccsscc"/>
              </g>
            </g>
            <g id="g1444" transform="rotate(45,-1273.117919921875,474.0667438507476)" style="fill:#dca600;fill-opacity:1;stroke-width:3.5541810989">
              <g id="g1436" style="opacity:1;fill:#dca600;fill-opacity:1;stroke-width:3.5541810989">
                <path sodipodi:nodetypes="cccsscc" inkscape:connector-curvature="0" id="path1432" d="m -1271.795047289961,460.6353907104378 c -0.879786632294,-0.086651420069 -1.765958631533,-0.086651420069 -2.645745263827,0 l -20.175546071767,-101.4293102984353 c -1.729602447216,-8.6952986885654 1.949024456746,-17.5762896510198 9.320542743056,-22.5017806989637 7.37151828631,-4.9254910479439 16.984233634938,-4.9254910479437 24.355751921248,0 7.37151828631,4.9254910479441 11.050145190272,13.8064820103979 9.320542743056,22.5017806989637 z" style="opacity:1;fill:#dca600;fill-opacity:1;stroke:none;stroke-width:2.8211312294;stroke-linecap:round;stroke-linejoin:round;stroke-miterlimit:4;stroke-dasharray:none;stroke-dashoffset:0;stroke-opacity:1;paint-order:markers stroke fill"/>
                <path style="opacity:1;fill:#dca600;fill-opacity:1;stroke:none;stroke-width:2.8211312294;stroke-linecap:round;stroke-linejoin:round;stroke-miterlimit:4;stroke-dasharray:none;stroke-dashoffset:0;stroke-opacity:1;paint-order:markers stroke fill" d="m -1271.795047289961,487.4980969910573 c -0.879786632294,0.086651420069 -1.765958631533,0.086651420069 -2.645745263827,0 l -20.175546071767,101.4293102984352 c -1.729602447216,8.6952986885652 1.949024456746,17.5762896510198 9.320542743056,22.5017806989633 7.37151828631,4.9254910479441 16.984233634938,4.925491047944 24.355751921248,0 7.37151828631,-4.9254910479442 11.050145190272,-13.8064820103975 9.320542743056,-22.5017806989633 z" id="path1434" inkscape:connector-curvature="0" sodipodi:nodetypes="cccsscc"/>
              </g>
              <g style="opacity:1;fill:#dca600;fill-opacity:1;stroke-width:3.5541810989" id="g1442" transform="rotate(-90,-1273.117919921875,474.0667438507557)">
                <path style="opacity:1;fill:#dca600;fill-opacity:1;stroke:none;stroke-width:2.8211312294;stroke-linecap:round;stroke-linejoin:round;stroke-miterlimit:4;stroke-dasharray:none;stroke-dashoffset:0;stroke-opacity:1;paint-order:markers stroke fill" d="m -1271.795047289961,460.6353907104378 c -0.879786632294,-0.086651420069 -1.765958631533,-0.086651420069 -2.645745263827,0 l -20.175546071767,-101.4293102984353 c -1.729602447216,-8.6952986885654 1.949024456746,-17.5762896510198 9.320542743056,-22.5017806989637 7.37151828631,-4.9254910479439 16.984233634938,-4.9254910479437 24.355751921248,0 7.37151828631,4.9254910479441 11.050145190272,13.8064820103979 9.320542743056,22.5017806989637 z" id="path1438" inkscape:connector-curvature="0" sodipodi:nodetypes="cccsscc"/>
                <path sodipodi:nodetypes="cccsscc" inkscape:connector-curvature="0" id="path1440" d="m -1271.795047289961,487.4980969910573 c -0.879786632294,0.086651420069 -1.765958631533,0.086651420069 -2.645745263827,0 l -20.175546071767,101.4293102984352 c -1.729602447216,8.6952986885652 1.949024456746,17.5762896510198 9.320542743056,22.5017806989633 7.37151828631,4.9254910479441 16.984233634938,4.925491047944 24.355751921248,0 7.37151828631,-4.9254910479442 11.050145190272,-13.8064820103975 9.320542743056,-22.5017806989633 z" style="opacity:1;fill:#dca600;fill-opacity:1;stroke:none;stroke-width:2.8211312294;stroke-linecap:round;stroke-linejoin:round;stroke-miterlimit:4;stroke-dasharray:none;stroke-dashoffset:0;stroke-opacity:1;paint-order:markers stroke fill"/>
              </g>
            </g>
            <g transform="rotate(67.5,-1273.117919921875,474.0667438507475)" id="g1458" style="fill:#dca600;fill-opacity:1;stroke-width:3.5541810989">
              <g style="opacity:1;fill:#dca600;fill-opacity:1;stroke-width:3.5541810989" id="g1450">
                <path style="opacity:1;fill:#dca600;fill-opacity:1;stroke:none;stroke-width:2.8211312294;stroke-linecap:round;stroke-linejoin:round;stroke-miterlimit:4;stroke-dasharray:none;stroke-dashoffset:0;stroke-opacity:1;paint-order:markers stroke fill" d="m -1271.795047289961,460.6353907104378 c -0.879786632294,-0.086651420069 -1.765958631533,-0.086651420069 -2.645745263827,0 l -20.175546071767,-101.4293102984353 c -1.729602447216,-8.6952986885654 1.949024456746,-17.5762896510198 9.320542743056,-22.5017806989637 7.37151828631,-4.9254910479439 16.984233634938,-4.9254910479437 24.355751921248,0 7.37151828631,4.9254910479441 11.050145190272,13.8064820103979 9.320542743056,22.5017806989637 z" id="path1446" inkscape:connector-curvature="0" sodipodi:nodetypes="cccsscc"/>
                <path sodipodi:nodetypes="cccsscc" inkscape:connector-curvature="0" id="path1448" d="m -1271.795047289961,487.4980969910573 c -0.879786632294,0.086651420069 -1.765958631533,0.086651420069 -2.645745263827,0 l -20.175546071767,101.4293102984352 c -1.729602447216,8.6952986885652 1.949024456746,17.5762896510198 9.320542743056,22.5017806989633 7.37151828631,4.9254910479441 16.984233634938,4.925491047944 24.355751921248,0 7.37151828631,-4.9254910479442 11.050145190272,-13.8064820103975 9.320542743056,-22.5017806989633 z" style="opacity:1;fill:#dca600;fill-opacity:1;stroke:none;stroke-width:2.8211312294;stroke-linecap:round;stroke-linejoin:round;stroke-miterlimit:4;stroke-dasharray:none;stroke-dashoffset:0;stroke-opacity:1;paint-order:markers stroke fill"/>
              </g>
              <g transform="rotate(-90,-1273.117919921875,474.066743850756)" id="g1456" style="opacity:1;fill:#dca600;fill-opacity:1;stroke-width:3.5541810989">
                <path sodipodi:nodetypes="cccsscc" inkscape:connector-curvature="0" id="path1452" d="m -1271.795047289961,460.6353907104378 c -0.879786632294,-0.086651420069 -1.765958631533,-0.086651420069 -2.645745263827,0 l -20.175546071767,-101.4293102984353 c -1.729602447216,-8.6952986885654 1.949024456746,-17.5762896510198 9.320542743056,-22.5017806989637 7.37151828631,-4.9254910479439 16.984233634938,-4.9254910479437 24.355751921248,0 7.37151828631,4.9254910479441 11.050145190272,13.8064820103979 9.320542743056,22.5017806989637 z" style="opacity:1;fill:#dca600;fill-opacity:1;stroke:none;stroke-width:2.8211312294;stroke-linecap:round;stroke-linejoin:round;stroke-miterlimit:4;stroke-dasharray:none;stroke-dashoffset:0;stroke-opacity:1;paint-order:markers stroke fill"/>
                <path style="opacity:1;fill:#dca600;fill-opacity:1;stroke:none;stroke-width:2.8211312294;stroke-linecap:round;stroke-linejoin:round;stroke-miterlimit:4;stroke-dasharray:none;stroke-dashoffset:0;stroke-opacity:1;paint-order:markers stroke fill" d="m -1271.795047289961,487.4980969910573 c -0.879786632294,0.086651420069 -1.765958631533,0.086651420069 -2.645745263827,0 l -20.175546071767,101.4293102984352 c -1.729602447216,8.6952986885652 1.949024456746,17.5762896510198 9.320542743056,22.5017806989633 7.37151828631,4.9254910479441 16.984233634938,4.925491047944 24.355751921248,0 7.37151828631,-4.9254910479442 11.050145190272,-13.8064820103975 9.320542743056,-22.5017806989633 z" id="path1454" inkscape:connector-curvature="0" sodipodi:nodetypes="cccsscc"/>
              </g>
            </g>
          </g>
        </g>
        <g transform="rotate(11.25,-1273.117728438483,474.0667438509821)" id="g1626" style="fill:#dca600;fill-opacity:1;stroke-width:3.5541810989">
          <g id="g1540" style="fill:#dca600;fill-opacity:1;stroke-width:3.5541810989">
            <g id="g1526" style="fill:#dca600;fill-opacity:1;stroke-width:3.5541810989">
              <path style="fill:#dca600;fill-opacity:1;stroke:none;stroke-width:0.9403770566px;stroke-linecap:butt;stroke-linejoin:miter;stroke-opacity:1" d="m -1269.333622441759,342.2242952459632 c 1.952283674467,-2.5334249902698 4.404782687875,-4.6798237460881 7.174216641915,-6.2789053621194 -3.313146108184,-1.911807372291 -7.133364163239,-2.9351738156819 -10.958315593878,-2.9352084558563 -3.825083712941,-3.46413724e-5 -7.645451773617,1.0233348848129 -10.95832968345,2.9352084034889 2.769816739429,1.599081668399 5.222315752836,3.7454804242173 7.174599427303,6.2789054144868 1.634426355625,2.1209502636575 2.9187086956,4.5110842205337 3.783914604055,7.044630493145 0.865205908455,-2.5335462726113 2.149488248431,-4.9236802294875 3.783914604055,-7.044630493145 z" id="path1389" inkscape:connector-curvature="0" sodipodi:nodetypes="scscscs"/>
              <path sodipodi:nodetypes="scscscs" inkscape:connector-curvature="0" id="path1522" d="m -1269.333622441759,605.9091924555588 c 1.952283674467,2.5334249902697 4.404782687875,4.6798237460881 7.174216641915,6.2789053621194 -3.313146108184,1.9118073722909 -7.133364163239,2.9351738156819 -10.958315593878,2.9352084558561 -3.825083712941,3.46413724e-5 -7.645451773617,-1.0233348848128 -10.95832968345,-2.9352084034889 2.769816739429,-1.5990816683988 5.222315752836,-3.7454804242171 7.174599427303,-6.2789054144866 1.634426355625,-2.1209502636574 2.9187086956,-4.5110842205337 3.783914604055,-7.0446304931451 0.865205908455,2.5335462726114 2.149488248431,4.9236802294876 3.783914604055,7.0446304931451 z" style="fill:#dca600;fill-opacity:1;stroke:none;stroke-width:0.9403770566px;stroke-linecap:butt;stroke-linejoin:miter;stroke-opacity:1"/>
            </g>
            <g transform="rotate(-90,-1273.117728438508,474.0667438507686)" id="g1532" style="fill:#dca600;fill-opacity:1;stroke-width:3.5541810989">
              <path sodipodi:nodetypes="scscscs" inkscape:connector-curvature="0" id="path1528" d="m -1269.333622441759,342.2242952459632 c 1.952283674467,-2.5334249902698 4.404782687875,-4.6798237460881 7.174216641915,-6.2789053621194 -3.313146108184,-1.911807372291 -7.133364163239,-2.9351738156819 -10.958315593878,-2.9352084558563 -3.825083712941,-3.46413724e-5 -7.645451773617,1.0233348848129 -10.95832968345,2.9352084034889 2.769816739429,1.599081668399 5.222315752836,3.7454804242173 7.174599427303,6.2789054144868 1.634426355625,2.1209502636575 2.9187086956,4.5110842205337 3.783914604055,7.044630493145 0.865205908455,-2.5335462726113 2.149488248431,-4.9236802294875 3.783914604055,-7.044630493145 z" style="fill:#dca600;fill-opacity:1;stroke:none;stroke-width:0.9403770566px;stroke-linecap:butt;stroke-linejoin:miter;stroke-opacity:1"/>
              <path style="fill:#dca600;fill-opacity:1;stroke:none;stroke-width:0.9403770566px;stroke-linecap:butt;stroke-linejoin:miter;stroke-opacity:1" d="m -1269.333622441759,605.9091924555588 c 1.952283674467,2.5334249902697 4.404782687875,4.6798237460881 7.174216641915,6.2789053621194 -3.313146108184,1.9118073722909 -7.133364163239,2.9351738156819 -10.958315593878,2.9352084558561 -3.825083712941,3.46413724e-5 -7.645451773617,-1.0233348848128 -10.95832968345,-2.9352084034889 2.769816739429,-1.5990816683988 5.222315752836,-3.7454804242171 7.174599427303,-6.2789054144866 1.634426355625,-2.1209502636574 2.9187086956,-4.5110842205337 3.783914604055,-7.0446304931451 0.865205908455,2.5335462726114 2.149488248431,4.9236802294876 3.783914604055,7.0446304931451 z" id="path1530" inkscape:connector-curvature="0" sodipodi:nodetypes="scscscs"/>
            </g>
          </g>
          <g id="g1568" transform="rotate(22.5,-1273.117728438508,474.0667438507608)" style="fill:#dca600;fill-opacity:1;stroke-width:3.5541810989">
            <g id="g1560" style="fill:#dca600;fill-opacity:1;stroke-width:3.5541810989">
              <path sodipodi:nodetypes="scscscs" inkscape:connector-curvature="0" id="path1556" d="m -1269.333622441759,342.2242952459632 c 1.952283674467,-2.5334249902698 4.404782687875,-4.6798237460881 7.174216641915,-6.2789053621194 -3.313146108184,-1.911807372291 -7.133364163239,-2.9351738156819 -10.958315593878,-2.9352084558563 -3.825083712941,-3.46413724e-5 -7.645451773617,1.0233348848129 -10.95832968345,2.9352084034889 2.769816739429,1.599081668399 5.222315752836,3.7454804242173 7.174599427303,6.2789054144868 1.634426355625,2.1209502636575 2.9187086956,4.5110842205337 3.783914604055,7.044630493145 0.865205908455,-2.5335462726113 2.149488248431,-4.9236802294875 3.783914604055,-7.044630493145 z" style="fill:#dca600;fill-opacity:1;stroke:none;stroke-width:0.9403770566px;stroke-linecap:butt;stroke-linejoin:miter;stroke-opacity:1"/>
              <path style="fill:#dca600;fill-opacity:1;stroke:none;stroke-width:0.9403770566px;stroke-linecap:butt;stroke-linejoin:miter;stroke-opacity:1" d="m -1269.333622441759,605.9091924555588 c 1.952283674467,2.5334249902697 4.404782687875,4.6798237460881 7.174216641915,6.2789053621194 -3.313146108184,1.9118073722909 -7.133364163239,2.9351738156819 -10.958315593878,2.9352084558561 -3.825083712941,3.46413724e-5 -7.645451773617,-1.0233348848128 -10.95832968345,-2.9352084034889 2.769816739429,-1.5990816683988 5.222315752836,-3.7454804242171 7.174599427303,-6.2789054144866 1.634426355625,-2.1209502636574 2.9187086956,-4.5110842205337 3.783914604055,-7.0446304931451 0.865205908455,2.5335462726114 2.149488248431,4.9236802294876 3.783914604055,7.0446304931451 z" id="path1558" inkscape:connector-curvature="0" sodipodi:nodetypes="scscscs"/>
            </g>
            <g id="g1566" transform="rotate(-90,-1273.117728438508,474.0667438507689)" style="fill:#dca600;fill-opacity:1;stroke-width:3.5541810989">
              <path style="fill:#dca600;fill-opacity:1;stroke:none;stroke-width:0.9403770566px;stroke-linecap:butt;stroke-linejoin:miter;stroke-opacity:1" d="m -1269.333622441759,342.2242952459632 c 1.952283674467,-2.5334249902698 4.404782687875,-4.6798237460881 7.174216641915,-6.2789053621194 -3.313146108184,-1.911807372291 -7.133364163239,-2.9351738156819 -10.958315593878,-2.9352084558563 -3.825083712941,-3.46413724e-5 -7.645451773617,1.0233348848129 -10.95832968345,2.9352084034889 2.769816739429,1.599081668399 5.222315752836,3.7454804242173 7.174599427303,6.2789054144868 1.634426355625,2.1209502636575 2.9187086956,4.5110842205337 3.783914604055,7.044630493145 0.865205908455,-2.5335462726113 2.149488248431,-4.9236802294875 3.783914604055,-7.044630493145 z" id="path1562" inkscape:connector-curvature="0" sodipodi:nodetypes="scscscs"/>
              <path sodipodi:nodetypes="scscscs" inkscape:connector-curvature="0" id="path1564" d="m -1269.333622441759,605.9091924555588 c 1.952283674467,2.5334249902697 4.404782687875,4.6798237460881 7.174216641915,6.2789053621194 -3.313146108184,1.9118073722909 -7.133364163239,2.9351738156819 -10.958315593878,2.9352084558561 -3.825083712941,3.46413724e-5 -7.645451773617,-1.0233348848128 -10.95832968345,-2.9352084034889 2.769816739429,-1.5990816683988 5.222315752836,-3.7454804242171 7.174599427303,-6.2789054144866 1.634426355625,-2.1209502636574 2.9187086956,-4.5110842205337 3.783914604055,-7.0446304931451 0.865205908455,2.5335462726114 2.149488248431,4.9236802294876 3.783914604055,7.0446304931451 z" style="fill:#dca600;fill-opacity:1;stroke:none;stroke-width:0.9403770566px;stroke-linecap:butt;stroke-linejoin:miter;stroke-opacity:1"/>
            </g>
          </g>
          <g transform="rotate(45,-1273.117753595448,474.0667270414323)" id="g1582" style="fill:#dca600;fill-opacity:1;stroke-width:3.5541810989">
            <g id="g1574" style="fill:#dca600;fill-opacity:1;stroke-width:3.5541810989">
              <path style="fill:#dca600;fill-opacity:1;stroke:none;stroke-width:0.9403770566px;stroke-linecap:butt;stroke-linejoin:miter;stroke-opacity:1" d="m -1269.333622441759,342.2242952459632 c 1.952283674467,-2.5334249902698 4.404782687875,-4.6798237460881 7.174216641915,-6.2789053621194 -3.313146108184,-1.911807372291 -7.133364163239,-2.9351738156819 -10.958315593878,-2.9352084558563 -3.825083712941,-3.46413724e-5 -7.645451773617,1.0233348848129 -10.95832968345,2.9352084034889 2.769816739429,1.599081668399 5.222315752836,3.7454804242173 7.174599427303,6.2789054144868 1.634426355625,2.1209502636575 2.9187086956,4.5110842205337 3.783914604055,7.044630493145 0.865205908455,-2.5335462726113 2.149488248431,-4.9236802294875 3.783914604055,-7.044630493145 z" id="path1570" inkscape:connector-curvature="0" sodipodi:nodetypes="scscscs"/>
              <path sodipodi:nodetypes="scscscs" inkscape:connector-curvature="0" id="path1572" d="m -1269.333622441759,605.9091924555588 c 1.952283674467,2.5334249902697 4.404782687875,4.6798237460881 7.174216641915,6.2789053621194 -3.313146108184,1.9118073722909 -7.133364163239,2.9351738156819 -10.958315593878,2.9352084558561 -3.825083712941,3.46413724e-5 -7.645451773617,-1.0233348848128 -10.95832968345,-2.9352084034889 2.769816739429,-1.5990816683988 5.222315752836,-3.7454804242171 7.174599427303,-6.2789054144866 1.634426355625,-2.1209502636574 2.9187086956,-4.5110842205337 3.783914604055,-7.0446304931451 0.865205908455,2.5335462726114 2.149488248431,4.9236802294876 3.783914604055,7.0446304931451 z" style="fill:#dca600;fill-opacity:1;stroke:none;stroke-width:0.9403770566px;stroke-linecap:butt;stroke-linejoin:miter;stroke-opacity:1"/>
            </g>
            <g transform="rotate(-90,-1273.117728438508,474.0667438507692)" id="g1580" style="fill:#dca600;fill-opacity:1;stroke-width:3.5541810989">
              <path sodipodi:nodetypes="scscscs" inkscape:connector-curvature="0" id="path1576" d="m -1269.333622441759,342.2242952459632 c 1.952283674467,-2.5334249902698 4.404782687875,-4.6798237460881 7.174216641915,-6.2789053621194 -3.313146108184,-1.911807372291 -7.133364163239,-2.9351738156819 -10.958315593878,-2.9352084558563 -3.825083712941,-3.46413724e-5 -7.645451773617,1.0233348848129 -10.95832968345,2.9352084034889 2.769816739429,1.599081668399 5.222315752836,3.7454804242173 7.174599427303,6.2789054144868 1.634426355625,2.1209502636575 2.9187086956,4.5110842205337 3.783914604055,7.044630493145 0.865205908455,-2.5335462726113 2.149488248431,-4.9236802294875 3.783914604055,-7.044630493145 z" style="fill:#dca600;fill-opacity:1;stroke:none;stroke-width:0.9403770566px;stroke-linecap:butt;stroke-linejoin:miter;stroke-opacity:1"/>
              <path style="fill:#dca600;fill-opacity:1;stroke:none;stroke-width:0.9403770566px;stroke-linecap:butt;stroke-linejoin:miter;stroke-opacity:1" d="m -1269.333622441759,605.9091924555588 c 1.952283674467,2.5334249902697 4.404782687875,4.6798237460881 7.174216641915,6.2789053621194 -3.313146108184,1.9118073722909 -7.133364163239,2.9351738156819 -10.958315593878,2.9352084558561 -3.825083712941,3.46413724e-5 -7.645451773617,-1.0233348848128 -10.95832968345,-2.9352084034889 2.769816739429,-1.5990816683988 5.222315752836,-3.7454804242171 7.174599427303,-6.2789054144866 1.634426355625,-2.1209502636574 2.9187086956,-4.5110842205337 3.783914604055,-7.0446304931451 0.865205908455,2.5335462726114 2.149488248431,4.9236802294876 3.783914604055,7.0446304931451 z" id="path1578" inkscape:connector-curvature="0" sodipodi:nodetypes="scscscs"/>
            </g>
          </g>
          <g id="g1596" transform="rotate(67.5,-1273.117747698803,474.0667358778621)" style="fill:#dca600;fill-opacity:1;stroke-width:3.5541810989">
            <g id="g1588" style="fill:#dca600;fill-opacity:1;stroke-width:3.5541810989">
              <path sodipodi:nodetypes="scscscs" inkscape:connector-curvature="0" id="path1584" d="m -1269.333622441759,342.2242952459632 c 1.952283674467,-2.5334249902698 4.404782687875,-4.6798237460881 7.174216641915,-6.2789053621194 -3.313146108184,-1.911807372291 -7.133364163239,-2.9351738156819 -10.958315593878,-2.9352084558563 -3.825083712941,-3.46413724e-5 -7.645451773617,1.0233348848129 -10.95832968345,2.9352084034889 2.769816739429,1.599081668399 5.222315752836,3.7454804242173 7.174599427303,6.2789054144868 1.634426355625,2.1209502636575 2.9187086956,4.5110842205337 3.783914604055,7.044630493145 0.865205908455,-2.5335462726113 2.149488248431,-4.9236802294875 3.783914604055,-7.044630493145 z" style="fill:#dca600;fill-opacity:1;stroke:none;stroke-width:0.9403770566px;stroke-linecap:butt;stroke-linejoin:miter;stroke-opacity:1"/>
              <path style="fill:#dca600;fill-opacity:1;stroke:none;stroke-width:0.9403770566px;stroke-linecap:butt;stroke-linejoin:miter;stroke-opacity:1" d="m -1269.333622441759,605.9091924555588 c 1.952283674467,2.5334249902697 4.404782687875,4.6798237460881 7.174216641915,6.2789053621194 -3.313146108184,1.9118073722909 -7.133364163239,2.9351738156819 -10.958315593878,2.9352084558561 -3.825083712941,3.46413724e-5 -7.645451773617,-1.0233348848128 -10.95832968345,-2.9352084034889 2.769816739429,-1.5990816683988 5.222315752836,-3.7454804242171 7.174599427303,-6.2789054144866 1.634426355625,-2.1209502636574 2.9187086956,-4.5110842205337 3.783914604055,-7.0446304931451 0.865205908455,2.5335462726114 2.149488248431,4.9236802294876 3.783914604055,7.0446304931451 z" id="path1586" inkscape:connector-curvature="0" sodipodi:nodetypes="scscscs"/>
            </g>
            <g id="g1594" transform="rotate(-90,-1273.117728438508,474.0667438507695)" style="fill:#dca600;fill-opacity:1;stroke-width:3.5541810989">
              <path style="fill:#dca600;fill-opacity:1;stroke:none;stroke-width:0.9403770566px;stroke-linecap:butt;stroke-linejoin:miter;stroke-opacity:1" d="m -1269.333622441759,342.2242952459632 c 1.952283674467,-2.5334249902698 4.404782687875,-4.6798237460881 7.174216641915,-6.2789053621194 -3.313146108184,-1.911807372291 -7.133364163239,-2.9351738156819 -10.958315593878,-2.9352084558563 -3.825083712941,-3.46413724e-5 -7.645451773617,1.0233348848129 -10.95832968345,2.9352084034889 2.769816739429,1.599081668399 5.222315752836,3.7454804242173 7.174599427303,6.2789054144868 1.634426355625,2.1209502636575 2.9187086956,4.5110842205337 3.783914604055,7.044630493145 0.865205908455,-2.5335462726113 2.149488248431,-4.9236802294875 3.783914604055,-7.044630493145 z" id="path1590" inkscape:connector-curvature="0" sodipodi:nodetypes="scscscs"/>
              <path sodipodi:nodetypes="scscscs" inkscape:connector-curvature="0" id="path1592" d="m -1269.333622441759,605.9091924555588 c 1.952283674467,2.5334249902697 4.404782687875,4.6798237460881 7.174216641915,6.2789053621194 -3.313146108184,1.9118073722909 -7.133364163239,2.9351738156819 -10.958315593878,2.9352084558561 -3.825083712941,3.46413724e-5 -7.645451773617,-1.0233348848128 -10.95832968345,-2.9352084034889 2.769816739429,-1.5990816683988 5.222315752836,-3.7454804242171 7.174599427303,-6.2789054144866 1.634426355625,-2.1209502636574 2.9187086956,-4.5110842205337 3.783914604055,-7.0446304931451 0.865205908455,2.5335462726114 2.149488248431,4.9236802294876 3.783914604055,7.0446304931451 z" style="fill:#dca600;fill-opacity:1;stroke:none;stroke-width:0.9403770566px;stroke-linecap:butt;stroke-linejoin:miter;stroke-opacity:1"/>
            </g>
          </g>
        </g>
      </g>
    </g>
  </g>
</svg>