<svg xmlns="http://www.w3.org/2000/svg" xmlns:xlink="http://www.w3.org/1999/xlink" width="900" height="600"><path fill="#bd0029" d="M0 0h900v600H0"/><path fill="#fff" d="M80 80h40v440H80M780 80h40v440H780M80 80h740v40H80M80 480h740v40H80"/><g id="f"><path id="p" fill="#dca600" d="m 482.94705,162.00399 c 2.1881,-1.63676 4.63379,-2.92847 7.21923,-3.81292 -3.05451,-2.66345 -6.81417,-4.51076 -10.78901,-5.30118 -3.97397,-0.79024 -8.15342,-0.52214 -11.99385,0.76939 2.05018,1.80653 3.81537,3.93584 5.21056,6.28536 1.78002,2.99761 2.9537,6.3536 3.43054,9.80736 1.76224,-3.00838 4.13085,-5.65976 6.92253,-7.74801 M 451.48181,285.717 c -0.96286,-0.0948 -1.9327,-0.0948 -2.89555,0 L 427.13957,177.89699 c -1.84192,-9.25994 2.07559,-18.71765 9.92579,-23.96299 7.8502,-5.24533 18.08714,-5.24533 25.93734,1e-5 7.85021,5.24533 11.76772,14.70303 9.9258,23.96298"/><use xlink:href="#p" transform="rotate(180,450,300)"/><use xlink:href="#p" transform="rotate(90,450,300)"/><use xlink:href="#p" transform="rotate(-90,450,300)"/></g><use xlink:href="#f" transform="rotate(45,450,300)"/><use xlink:href="#f" transform="rotate(67.5,450,300)"/><use xlink:href="#f" transform="rotate(22.5,450,300)"/><circle fill="#dca600" cx="450" cy="300" r="11.538462"/></svg>