<?xml version="1.0" encoding="UTF-8" standalone="no"?>
<!-- Created with Inkscape (http://www.inkscape.org/) -->
<svg xmlns:dc="http://purl.org/dc/elements/1.1/" xmlns:cc="http://creativecommons.org/ns#" xmlns:rdf="http://www.w3.org/1999/02/22-rdf-syntax-ns#" xmlns:svg="http://www.w3.org/2000/svg" xmlns="http://www.w3.org/2000/svg" xmlns:sodipodi="http://sodipodi.sourceforge.net/DTD/sodipodi-0.dtd" xmlns:inkscape="http://www.inkscape.org/namespaces/inkscape" width="1050" height="600" viewBox="0 0 277.8124936077331 158.7500044858016" version="1.1" id="svg3283" inkscape:version="0.92.3 (2405546, 2018-03-11)" sodipodi:docname="皇太子妃旗.svg">
  <defs id="defs3277"/>
  <sodipodi:namedview id="base" pagecolor="#dedede" bordercolor="#666666" borderopacity="1.0" inkscape:pageopacity="0" inkscape:pageshadow="2" inkscape:zoom="0.2474873734805821" inkscape:cx="768.982869588265" inkscape:cy="516.5323951364328" inkscape:document-units="mm" inkscape:current-layer="layer1" showgrid="false" units="px" inkscape:window-width="1366" inkscape:window-height="716" inkscape:window-x="-8" inkscape:window-y="-8" inkscape:window-maximized="1"/>
  <metadata id="metadata3280">
    <rdf:RDF>
      <cc:Work rdf:about="">
        <dc:format>image/svg+xml</dc:format>
        <dc:type rdf:resource="http://purl.org/dc/dcmitype/StillImage"/>
        <dc:title/>
      </cc:Work>
    </rdf:RDF>
  </metadata>
  <g inkscape:label="Layer 1" inkscape:groupmode="layer" id="layer1" transform="translate(0,-138.249983215332)">
    <g id="g4517" transform="translate(-232.0638543155328,-32.33556339603018)">
      <path style="fill:#bd0029;fill-opacity:1;stroke:none;stroke-width:0.2645833194px;stroke-linecap:butt;stroke-linejoin:miter;stroke-opacity:1" d="m 509.8763535865799,170.5855466113627 -92.6041666666568,79.3750000000025 92.6041666666667,79.3749999999969 -277.812499271057,-4.165392e-7 V 170.5855461948253 Z" id="path1148-4" inkscape:connector-curvature="0" sodipodi:nodetypes="cccccc"/>
      <path inkscape:connector-curvature="0" style="color:#000000;font-style:normal;font-variant:normal;font-weight:normal;font-stretch:normal;font-size:medium;line-height:normal;font-family:sans-serif;font-variant-ligatures:normal;font-variant-position:normal;font-variant-caps:normal;font-variant-numeric:normal;font-variant-alternates:normal;font-feature-settings:normal;text-indent:0;text-align:start;text-decoration:none;text-decoration-line:none;text-decoration-style:solid;text-decoration-color:#000000;letter-spacing:normal;word-spacing:normal;text-transform:none;writing-mode:lr-tb;direction:ltr;text-orientation:mixed;dominant-baseline:auto;baseline-shift:baseline;text-anchor:start;white-space:normal;shape-padding:0;clip-rule:nonzero;display:inline;overflow:visible;visibility:visible;opacity:1;isolation:auto;mix-blend-mode:normal;color-interpolation:sRGB;color-interpolation-filters:linearRGB;solid-color:#000000;solid-opacity:1;vector-effect:none;fill:#ffffff;fill-opacity:1;fill-rule:nonzero;stroke:none;stroke-width:42.3333320618;stroke-linecap:butt;stroke-linejoin:miter;stroke-miterlimit:4;stroke-dasharray:none;stroke-dashoffset:0;stroke-opacity:1;color-rendering:auto;image-rendering:auto;shape-rendering:auto;text-rendering:auto;enable-background:accumulate" d="m 253.2297781334853,191.7514379232758 v 116.4182169596356 h 199.4281372070313 l -67.9105834960939,-58.2088500976569 67.9105834960939,-58.2093668619787 z m 10.5838500976562,10.5843668619793 h 160.2341471354164 l -55.5624999999999,47.6249999999998 55.5624999999999,47.6250000000002 H 263.8136282311415 Z" id="path1835"/>
      <g id="g2016" style="fill:#dca600;fill-opacity:1;stroke-width:3.5541810989" transform="matrix(0.2813587635915706,0,0,0.2813587635915706,674.3524813807988,116.5777134933664)">
        <g id="g1956" style="fill:#dca600;fill-opacity:1;stroke-width:3.5541810989">
          <circle style="opacity:1;fill:#dca600;fill-opacity:1;stroke:none;stroke-width:2.8211312294;stroke-linecap:round;stroke-linejoin:round;stroke-miterlimit:4;stroke-dasharray:none;stroke-dashoffset:0;stroke-opacity:1;paint-order:markers stroke fill" id="circle1896" cx="-1273.117919921875" cy="474.0667419433594" r="10.85050487518311"/>
          <g id="g1954" style="fill:#dca600;fill-opacity:1;stroke-width:3.5541810989">
            <g id="g1910" style="fill:#dca600;fill-opacity:1;stroke-width:3.5541810989">
              <g id="g1902" style="opacity:1;fill:#dca600;fill-opacity:1;stroke-width:3.5541810989">
                <path sodipodi:nodetypes="cccsscc" inkscape:connector-curvature="0" id="path1898" d="m -1271.795047289961,460.6353907104378 c -0.879786632294,-0.086651420069 -1.765958631533,-0.086651420069 -2.645745263827,0 l -20.175546071767,-101.4293102984353 c -1.729602447216,-8.6952986885654 1.949024456746,-17.5762896510198 9.320542743056,-22.5017806989637 7.37151828631,-4.9254910479439 16.984233634938,-4.9254910479437 24.355751921248,0 7.37151828631,4.9254910479441 11.050145190272,13.8064820103979 9.320542743056,22.5017806989637 z" style="opacity:1;fill:#dca600;fill-opacity:1;stroke:none;stroke-width:2.8211312294;stroke-linecap:round;stroke-linejoin:round;stroke-miterlimit:4;stroke-dasharray:none;stroke-dashoffset:0;stroke-opacity:1;paint-order:markers stroke fill"/>
                <path style="opacity:1;fill:#dca600;fill-opacity:1;stroke:none;stroke-width:2.8211312294;stroke-linecap:round;stroke-linejoin:round;stroke-miterlimit:4;stroke-dasharray:none;stroke-dashoffset:0;stroke-opacity:1;paint-order:markers stroke fill" d="m -1271.795047289961,487.4980969910573 c -0.879786632294,0.086651420069 -1.765958631533,0.086651420069 -2.645745263827,0 l -20.175546071767,101.4293102984352 c -1.729602447216,8.6952986885652 1.949024456746,17.5762896510198 9.320542743056,22.5017806989633 7.37151828631,4.9254910479441 16.984233634938,4.925491047944 24.355751921248,0 7.37151828631,-4.9254910479442 11.050145190272,-13.8064820103975 9.320542743056,-22.5017806989633 z" id="path1900" inkscape:connector-curvature="0" sodipodi:nodetypes="cccsscc"/>
              </g>
              <g style="opacity:1;fill:#dca600;fill-opacity:1;stroke-width:3.5541810989" id="g1908" transform="rotate(-90,-1273.117919921875,474.0667438507582)">
                <path style="opacity:1;fill:#dca600;fill-opacity:1;stroke:none;stroke-width:2.8211312294;stroke-linecap:round;stroke-linejoin:round;stroke-miterlimit:4;stroke-dasharray:none;stroke-dashoffset:0;stroke-opacity:1;paint-order:markers stroke fill" d="m -1271.795047289961,460.6353907104378 c -0.879786632294,-0.086651420069 -1.765958631533,-0.086651420069 -2.645745263827,0 l -20.175546071767,-101.4293102984353 c -1.729602447216,-8.6952986885654 1.949024456746,-17.5762896510198 9.320542743056,-22.5017806989637 7.37151828631,-4.9254910479439 16.984233634938,-4.9254910479437 24.355751921248,0 7.37151828631,4.9254910479441 11.050145190272,13.8064820103979 9.320542743056,22.5017806989637 z" id="path1904" inkscape:connector-curvature="0" sodipodi:nodetypes="cccsscc"/>
                <path sodipodi:nodetypes="cccsscc" inkscape:connector-curvature="0" id="path1906" d="m -1271.795047289961,487.4980969910573 c -0.879786632294,0.086651420069 -1.765958631533,0.086651420069 -2.645745263827,0 l -20.175546071767,101.4293102984352 c -1.729602447216,8.6952986885652 1.949024456746,17.5762896510198 9.320542743056,22.5017806989633 7.37151828631,4.9254910479441 16.984233634938,4.925491047944 24.355751921248,0 7.37151828631,-4.9254910479442 11.050145190272,-13.8064820103975 9.320542743056,-22.5017806989633 z" style="opacity:1;fill:#dca600;fill-opacity:1;stroke:none;stroke-width:2.8211312294;stroke-linecap:round;stroke-linejoin:round;stroke-miterlimit:4;stroke-dasharray:none;stroke-dashoffset:0;stroke-opacity:1;paint-order:markers stroke fill"/>
              </g>
            </g>
            <g transform="rotate(22.5,-1273.117919921875,474.0667438507473)" id="g1924" style="fill:#dca600;fill-opacity:1;stroke-width:3.5541810989">
              <g style="opacity:1;fill:#dca600;fill-opacity:1;stroke-width:3.5541810989" id="g1916">
                <path style="opacity:1;fill:#dca600;fill-opacity:1;stroke:none;stroke-width:2.8211312294;stroke-linecap:round;stroke-linejoin:round;stroke-miterlimit:4;stroke-dasharray:none;stroke-dashoffset:0;stroke-opacity:1;paint-order:markers stroke fill" d="m -1271.795047289961,460.6353907104378 c -0.879786632294,-0.086651420069 -1.765958631533,-0.086651420069 -2.645745263827,0 l -20.175546071767,-101.4293102984353 c -1.729602447216,-8.6952986885654 1.949024456746,-17.5762896510198 9.320542743056,-22.5017806989637 7.37151828631,-4.9254910479439 16.984233634938,-4.9254910479437 24.355751921248,0 7.37151828631,4.9254910479441 11.050145190272,13.8064820103979 9.320542743056,22.5017806989637 z" id="path1912" inkscape:connector-curvature="0" sodipodi:nodetypes="cccsscc"/>
                <path sodipodi:nodetypes="cccsscc" inkscape:connector-curvature="0" id="path1914" d="m -1271.795047289961,487.4980969910573 c -0.879786632294,0.086651420069 -1.765958631533,0.086651420069 -2.645745263827,0 l -20.175546071767,101.4293102984352 c -1.729602447216,8.6952986885652 1.949024456746,17.5762896510198 9.320542743056,22.5017806989633 7.37151828631,4.9254910479441 16.984233634938,4.925491047944 24.355751921248,0 7.37151828631,-4.9254910479442 11.050145190272,-13.8064820103975 9.320542743056,-22.5017806989633 z" style="opacity:1;fill:#dca600;fill-opacity:1;stroke:none;stroke-width:2.8211312294;stroke-linecap:round;stroke-linejoin:round;stroke-miterlimit:4;stroke-dasharray:none;stroke-dashoffset:0;stroke-opacity:1;paint-order:markers stroke fill"/>
              </g>
              <g transform="rotate(-90,-1273.117919921875,474.0667438507585)" id="g1922" style="opacity:1;fill:#dca600;fill-opacity:1;stroke-width:3.5541810989">
                <path sodipodi:nodetypes="cccsscc" inkscape:connector-curvature="0" id="path1918" d="m -1271.795047289961,460.6353907104378 c -0.879786632294,-0.086651420069 -1.765958631533,-0.086651420069 -2.645745263827,0 l -20.175546071767,-101.4293102984353 c -1.729602447216,-8.6952986885654 1.949024456746,-17.5762896510198 9.320542743056,-22.5017806989637 7.37151828631,-4.9254910479439 16.984233634938,-4.9254910479437 24.355751921248,0 7.37151828631,4.9254910479441 11.050145190272,13.8064820103979 9.320542743056,22.5017806989637 z" style="opacity:1;fill:#dca600;fill-opacity:1;stroke:none;stroke-width:2.8211312294;stroke-linecap:round;stroke-linejoin:round;stroke-miterlimit:4;stroke-dasharray:none;stroke-dashoffset:0;stroke-opacity:1;paint-order:markers stroke fill"/>
                <path style="opacity:1;fill:#dca600;fill-opacity:1;stroke:none;stroke-width:2.8211312294;stroke-linecap:round;stroke-linejoin:round;stroke-miterlimit:4;stroke-dasharray:none;stroke-dashoffset:0;stroke-opacity:1;paint-order:markers stroke fill" d="m -1271.795047289961,487.4980969910573 c -0.879786632294,0.086651420069 -1.765958631533,0.086651420069 -2.645745263827,0 l -20.175546071767,101.4293102984352 c -1.729602447216,8.6952986885652 1.949024456746,17.5762896510198 9.320542743056,22.5017806989633 7.37151828631,4.9254910479441 16.984233634938,4.925491047944 24.355751921248,0 7.37151828631,-4.9254910479442 11.050145190272,-13.8064820103975 9.320542743056,-22.5017806989633 z" id="path1920" inkscape:connector-curvature="0" sodipodi:nodetypes="cccsscc"/>
              </g>
            </g>
            <g id="g1938" transform="rotate(45,-1273.117919921875,474.0667438507476)" style="fill:#dca600;fill-opacity:1;stroke-width:3.5541810989">
              <g id="g1930" style="opacity:1;fill:#dca600;fill-opacity:1;stroke-width:3.5541810989">
                <path sodipodi:nodetypes="cccsscc" inkscape:connector-curvature="0" id="path1926" d="m -1271.795047289961,460.6353907104378 c -0.879786632294,-0.086651420069 -1.765958631533,-0.086651420069 -2.645745263827,0 l -20.175546071767,-101.4293102984353 c -1.729602447216,-8.6952986885654 1.949024456746,-17.5762896510198 9.320542743056,-22.5017806989637 7.37151828631,-4.9254910479439 16.984233634938,-4.9254910479437 24.355751921248,0 7.37151828631,4.9254910479441 11.050145190272,13.8064820103979 9.320542743056,22.5017806989637 z" style="opacity:1;fill:#dca600;fill-opacity:1;stroke:none;stroke-width:2.8211312294;stroke-linecap:round;stroke-linejoin:round;stroke-miterlimit:4;stroke-dasharray:none;stroke-dashoffset:0;stroke-opacity:1;paint-order:markers stroke fill"/>
                <path style="opacity:1;fill:#dca600;fill-opacity:1;stroke:none;stroke-width:2.8211312294;stroke-linecap:round;stroke-linejoin:round;stroke-miterlimit:4;stroke-dasharray:none;stroke-dashoffset:0;stroke-opacity:1;paint-order:markers stroke fill" d="m -1271.795047289961,487.4980969910573 c -0.879786632294,0.086651420069 -1.765958631533,0.086651420069 -2.645745263827,0 l -20.175546071767,101.4293102984352 c -1.729602447216,8.6952986885652 1.949024456746,17.5762896510198 9.320542743056,22.5017806989633 7.37151828631,4.9254910479441 16.984233634938,4.925491047944 24.355751921248,0 7.37151828631,-4.9254910479442 11.050145190272,-13.8064820103975 9.320542743056,-22.5017806989633 z" id="path1928" inkscape:connector-curvature="0" sodipodi:nodetypes="cccsscc"/>
              </g>
              <g style="opacity:1;fill:#dca600;fill-opacity:1;stroke-width:3.5541810989" id="g1936" transform="rotate(-90,-1273.117919921875,474.0667438507588)">
                <path style="opacity:1;fill:#dca600;fill-opacity:1;stroke:none;stroke-width:2.8211312294;stroke-linecap:round;stroke-linejoin:round;stroke-miterlimit:4;stroke-dasharray:none;stroke-dashoffset:0;stroke-opacity:1;paint-order:markers stroke fill" d="m -1271.795047289961,460.6353907104378 c -0.879786632294,-0.086651420069 -1.765958631533,-0.086651420069 -2.645745263827,0 l -20.175546071767,-101.4293102984353 c -1.729602447216,-8.6952986885654 1.949024456746,-17.5762896510198 9.320542743056,-22.5017806989637 7.37151828631,-4.9254910479439 16.984233634938,-4.9254910479437 24.355751921248,0 7.37151828631,4.9254910479441 11.050145190272,13.8064820103979 9.320542743056,22.5017806989637 z" id="path1932" inkscape:connector-curvature="0" sodipodi:nodetypes="cccsscc"/>
                <path sodipodi:nodetypes="cccsscc" inkscape:connector-curvature="0" id="path1934" d="m -1271.795047289961,487.4980969910573 c -0.879786632294,0.086651420069 -1.765958631533,0.086651420069 -2.645745263827,0 l -20.175546071767,101.4293102984352 c -1.729602447216,8.6952986885652 1.949024456746,17.5762896510198 9.320542743056,22.5017806989633 7.37151828631,4.9254910479441 16.984233634938,4.925491047944 24.355751921248,0 7.37151828631,-4.9254910479442 11.050145190272,-13.8064820103975 9.320542743056,-22.5017806989633 z" style="opacity:1;fill:#dca600;fill-opacity:1;stroke:none;stroke-width:2.8211312294;stroke-linecap:round;stroke-linejoin:round;stroke-miterlimit:4;stroke-dasharray:none;stroke-dashoffset:0;stroke-opacity:1;paint-order:markers stroke fill"/>
              </g>
            </g>
            <g transform="rotate(67.5,-1273.117919921875,474.0667438507475)" id="g1952" style="fill:#dca600;fill-opacity:1;stroke-width:3.5541810989">
              <g style="opacity:1;fill:#dca600;fill-opacity:1;stroke-width:3.5541810989" id="g1944">
                <path style="opacity:1;fill:#dca600;fill-opacity:1;stroke:none;stroke-width:2.8211312294;stroke-linecap:round;stroke-linejoin:round;stroke-miterlimit:4;stroke-dasharray:none;stroke-dashoffset:0;stroke-opacity:1;paint-order:markers stroke fill" d="m -1271.795047289961,460.6353907104378 c -0.879786632294,-0.086651420069 -1.765958631533,-0.086651420069 -2.645745263827,0 l -20.175546071767,-101.4293102984353 c -1.729602447216,-8.6952986885654 1.949024456746,-17.5762896510198 9.320542743056,-22.5017806989637 7.37151828631,-4.9254910479439 16.984233634938,-4.9254910479437 24.355751921248,0 7.37151828631,4.9254910479441 11.050145190272,13.8064820103979 9.320542743056,22.5017806989637 z" id="path1940" inkscape:connector-curvature="0" sodipodi:nodetypes="cccsscc"/>
                <path sodipodi:nodetypes="cccsscc" inkscape:connector-curvature="0" id="path1942" d="m -1271.795047289961,487.4980969910573 c -0.879786632294,0.086651420069 -1.765958631533,0.086651420069 -2.645745263827,0 l -20.175546071767,101.4293102984352 c -1.729602447216,8.6952986885652 1.949024456746,17.5762896510198 9.320542743056,22.5017806989633 7.37151828631,4.9254910479441 16.984233634938,4.925491047944 24.355751921248,0 7.37151828631,-4.9254910479442 11.050145190272,-13.8064820103975 9.320542743056,-22.5017806989633 z" style="opacity:1;fill:#dca600;fill-opacity:1;stroke:none;stroke-width:2.8211312294;stroke-linecap:round;stroke-linejoin:round;stroke-miterlimit:4;stroke-dasharray:none;stroke-dashoffset:0;stroke-opacity:1;paint-order:markers stroke fill"/>
              </g>
              <g transform="rotate(-90,-1273.117919921875,474.0667438507591)" id="g1950" style="opacity:1;fill:#dca600;fill-opacity:1;stroke-width:3.5541810989">
                <path sodipodi:nodetypes="cccsscc" inkscape:connector-curvature="0" id="path1946" d="m -1271.795047289961,460.6353907104378 c -0.879786632294,-0.086651420069 -1.765958631533,-0.086651420069 -2.645745263827,0 l -20.175546071767,-101.4293102984353 c -1.729602447216,-8.6952986885654 1.949024456746,-17.5762896510198 9.320542743056,-22.5017806989637 7.37151828631,-4.9254910479439 16.984233634938,-4.9254910479437 24.355751921248,0 7.37151828631,4.9254910479441 11.050145190272,13.8064820103979 9.320542743056,22.5017806989637 z" style="opacity:1;fill:#dca600;fill-opacity:1;stroke:none;stroke-width:2.8211312294;stroke-linecap:round;stroke-linejoin:round;stroke-miterlimit:4;stroke-dasharray:none;stroke-dashoffset:0;stroke-opacity:1;paint-order:markers stroke fill"/>
                <path style="opacity:1;fill:#dca600;fill-opacity:1;stroke:none;stroke-width:2.8211312294;stroke-linecap:round;stroke-linejoin:round;stroke-miterlimit:4;stroke-dasharray:none;stroke-dashoffset:0;stroke-opacity:1;paint-order:markers stroke fill" d="m -1271.795047289961,487.4980969910573 c -0.879786632294,0.086651420069 -1.765958631533,0.086651420069 -2.645745263827,0 l -20.175546071767,101.4293102984352 c -1.729602447216,8.6952986885652 1.949024456746,17.5762896510198 9.320542743056,22.5017806989633 7.37151828631,4.9254910479441 16.984233634938,4.925491047944 24.355751921248,0 7.37151828631,-4.9254910479442 11.050145190272,-13.8064820103975 9.320542743056,-22.5017806989633 z" id="path1948" inkscape:connector-curvature="0" sodipodi:nodetypes="cccsscc"/>
              </g>
            </g>
          </g>
        </g>
        <g transform="rotate(11.25,-1273.117728438473,474.066743851093)" id="g2014" style="fill:#dca600;fill-opacity:1;stroke-width:3.5541810989">
          <g id="g1970" style="fill:#dca600;fill-opacity:1;stroke-width:3.5541810989">
            <g id="g1962" style="fill:#dca600;fill-opacity:1;stroke-width:3.5541810989">
              <path style="fill:#dca600;fill-opacity:1;stroke:none;stroke-width:0.9403770566px;stroke-linecap:butt;stroke-linejoin:miter;stroke-opacity:1" d="m -1269.333622441759,342.2242952459632 c 1.952283674467,-2.5334249902698 4.404782687875,-4.6798237460881 7.174216641915,-6.2789053621194 -3.313146108184,-1.911807372291 -7.133364163239,-2.9351738156819 -10.958315593878,-2.9352084558563 -3.825083712941,-3.46413724e-5 -7.645451773617,1.0233348848129 -10.95832968345,2.9352084034889 2.769816739429,1.599081668399 5.222315752836,3.7454804242173 7.174599427303,6.2789054144868 1.634426355625,2.1209502636575 2.9187086956,4.5110842205337 3.783914604055,7.044630493145 0.865205908455,-2.5335462726113 2.149488248431,-4.9236802294875 3.783914604055,-7.044630493145 z" id="path1958" inkscape:connector-curvature="0" sodipodi:nodetypes="scscscs"/>
              <path sodipodi:nodetypes="scscscs" inkscape:connector-curvature="0" id="path1960" d="m -1269.333622441759,605.9091924555588 c 1.952283674467,2.5334249902697 4.404782687875,4.6798237460881 7.174216641915,6.2789053621194 -3.313146108184,1.9118073722909 -7.133364163239,2.9351738156819 -10.958315593878,2.9352084558561 -3.825083712941,3.46413724e-5 -7.645451773617,-1.0233348848128 -10.95832968345,-2.9352084034889 2.769816739429,-1.5990816683988 5.222315752836,-3.7454804242171 7.174599427303,-6.2789054144866 1.634426355625,-2.1209502636574 2.9187086956,-4.5110842205337 3.783914604055,-7.0446304931451 0.865205908455,2.5335462726114 2.149488248431,4.9236802294876 3.783914604055,7.0446304931451 z" style="fill:#dca600;fill-opacity:1;stroke:none;stroke-width:0.9403770566px;stroke-linecap:butt;stroke-linejoin:miter;stroke-opacity:1"/>
            </g>
            <g transform="rotate(-90,-1273.117728438508,474.0667438507717)" id="g1968" style="fill:#dca600;fill-opacity:1;stroke-width:3.5541810989">
              <path sodipodi:nodetypes="scscscs" inkscape:connector-curvature="0" id="path1964" d="m -1269.333622441759,342.2242952459632 c 1.952283674467,-2.5334249902698 4.404782687875,-4.6798237460881 7.174216641915,-6.2789053621194 -3.313146108184,-1.911807372291 -7.133364163239,-2.9351738156819 -10.958315593878,-2.9352084558563 -3.825083712941,-3.46413724e-5 -7.645451773617,1.0233348848129 -10.95832968345,2.9352084034889 2.769816739429,1.599081668399 5.222315752836,3.7454804242173 7.174599427303,6.2789054144868 1.634426355625,2.1209502636575 2.9187086956,4.5110842205337 3.783914604055,7.044630493145 0.865205908455,-2.5335462726113 2.149488248431,-4.9236802294875 3.783914604055,-7.044630493145 z" style="fill:#dca600;fill-opacity:1;stroke:none;stroke-width:0.9403770566px;stroke-linecap:butt;stroke-linejoin:miter;stroke-opacity:1"/>
              <path style="fill:#dca600;fill-opacity:1;stroke:none;stroke-width:0.9403770566px;stroke-linecap:butt;stroke-linejoin:miter;stroke-opacity:1" d="m -1269.333622441759,605.9091924555588 c 1.952283674467,2.5334249902697 4.404782687875,4.6798237460881 7.174216641915,6.2789053621194 -3.313146108184,1.9118073722909 -7.133364163239,2.9351738156819 -10.958315593878,2.9352084558561 -3.825083712941,3.46413724e-5 -7.645451773617,-1.0233348848128 -10.95832968345,-2.9352084034889 2.769816739429,-1.5990816683988 5.222315752836,-3.7454804242171 7.174599427303,-6.2789054144866 1.634426355625,-2.1209502636574 2.9187086956,-4.5110842205337 3.783914604055,-7.0446304931451 0.865205908455,2.5335462726114 2.149488248431,4.9236802294876 3.783914604055,7.0446304931451 z" id="path1966" inkscape:connector-curvature="0" sodipodi:nodetypes="scscscs"/>
            </g>
          </g>
          <g id="g1984" transform="rotate(22.5,-1273.117728438508,474.0667438507608)" style="fill:#dca600;fill-opacity:1;stroke-width:3.5541810989">
            <g id="g1976" style="fill:#dca600;fill-opacity:1;stroke-width:3.5541810989">
              <path sodipodi:nodetypes="scscscs" inkscape:connector-curvature="0" id="path1972" d="m -1269.333622441759,342.2242952459632 c 1.952283674467,-2.5334249902698 4.404782687875,-4.6798237460881 7.174216641915,-6.2789053621194 -3.313146108184,-1.911807372291 -7.133364163239,-2.9351738156819 -10.958315593878,-2.9352084558563 -3.825083712941,-3.46413724e-5 -7.645451773617,1.0233348848129 -10.95832968345,2.9352084034889 2.769816739429,1.599081668399 5.222315752836,3.7454804242173 7.174599427303,6.2789054144868 1.634426355625,2.1209502636575 2.9187086956,4.5110842205337 3.783914604055,7.044630493145 0.865205908455,-2.5335462726113 2.149488248431,-4.9236802294875 3.783914604055,-7.044630493145 z" style="fill:#dca600;fill-opacity:1;stroke:none;stroke-width:0.9403770566px;stroke-linecap:butt;stroke-linejoin:miter;stroke-opacity:1"/>
              <path style="fill:#dca600;fill-opacity:1;stroke:none;stroke-width:0.9403770566px;stroke-linecap:butt;stroke-linejoin:miter;stroke-opacity:1" d="m -1269.333622441759,605.9091924555588 c 1.952283674467,2.5334249902697 4.404782687875,4.6798237460881 7.174216641915,6.2789053621194 -3.313146108184,1.9118073722909 -7.133364163239,2.9351738156819 -10.958315593878,2.9352084558561 -3.825083712941,3.46413724e-5 -7.645451773617,-1.0233348848128 -10.95832968345,-2.9352084034889 2.769816739429,-1.5990816683988 5.222315752836,-3.7454804242171 7.174599427303,-6.2789054144866 1.634426355625,-2.1209502636574 2.9187086956,-4.5110842205337 3.783914604055,-7.0446304931451 0.865205908455,2.5335462726114 2.149488248431,4.9236802294876 3.783914604055,7.0446304931451 z" id="path1974" inkscape:connector-curvature="0" sodipodi:nodetypes="scscscs"/>
            </g>
            <g id="g1982" transform="rotate(-90,-1273.117728438508,474.066743850772)" style="fill:#dca600;fill-opacity:1;stroke-width:3.5541810989">
              <path style="fill:#dca600;fill-opacity:1;stroke:none;stroke-width:0.9403770566px;stroke-linecap:butt;stroke-linejoin:miter;stroke-opacity:1" d="m -1269.333622441759,342.2242952459632 c 1.952283674467,-2.5334249902698 4.404782687875,-4.6798237460881 7.174216641915,-6.2789053621194 -3.313146108184,-1.911807372291 -7.133364163239,-2.9351738156819 -10.958315593878,-2.9352084558563 -3.825083712941,-3.46413724e-5 -7.645451773617,1.0233348848129 -10.95832968345,2.9352084034889 2.769816739429,1.599081668399 5.222315752836,3.7454804242173 7.174599427303,6.2789054144868 1.634426355625,2.1209502636575 2.9187086956,4.5110842205337 3.783914604055,7.044630493145 0.865205908455,-2.5335462726113 2.149488248431,-4.9236802294875 3.783914604055,-7.044630493145 z" id="path1978" inkscape:connector-curvature="0" sodipodi:nodetypes="scscscs"/>
              <path sodipodi:nodetypes="scscscs" inkscape:connector-curvature="0" id="path1980" d="m -1269.333622441759,605.9091924555588 c 1.952283674467,2.5334249902697 4.404782687875,4.6798237460881 7.174216641915,6.2789053621194 -3.313146108184,1.9118073722909 -7.133364163239,2.9351738156819 -10.958315593878,2.9352084558561 -3.825083712941,3.46413724e-5 -7.645451773617,-1.0233348848128 -10.95832968345,-2.9352084034889 2.769816739429,-1.5990816683988 5.222315752836,-3.7454804242171 7.174599427303,-6.2789054144866 1.634426355625,-2.1209502636574 2.9187086956,-4.5110842205337 3.783914604055,-7.0446304931451 0.865205908455,2.5335462726114 2.149488248431,4.9236802294876 3.783914604055,7.0446304931451 z" style="fill:#dca600;fill-opacity:1;stroke:none;stroke-width:0.9403770566px;stroke-linecap:butt;stroke-linejoin:miter;stroke-opacity:1"/>
            </g>
          </g>
          <g transform="rotate(45,-1273.117753595448,474.0667270414323)" id="g1998" style="fill:#dca600;fill-opacity:1;stroke-width:3.5541810989">
            <g id="g1990" style="fill:#dca600;fill-opacity:1;stroke-width:3.5541810989">
              <path style="fill:#dca600;fill-opacity:1;stroke:none;stroke-width:0.9403770566px;stroke-linecap:butt;stroke-linejoin:miter;stroke-opacity:1" d="m -1269.333622441759,342.2242952459632 c 1.952283674467,-2.5334249902698 4.404782687875,-4.6798237460881 7.174216641915,-6.2789053621194 -3.313146108184,-1.911807372291 -7.133364163239,-2.9351738156819 -10.958315593878,-2.9352084558563 -3.825083712941,-3.46413724e-5 -7.645451773617,1.0233348848129 -10.95832968345,2.9352084034889 2.769816739429,1.599081668399 5.222315752836,3.7454804242173 7.174599427303,6.2789054144868 1.634426355625,2.1209502636575 2.9187086956,4.5110842205337 3.783914604055,7.044630493145 0.865205908455,-2.5335462726113 2.149488248431,-4.9236802294875 3.783914604055,-7.044630493145 z" id="path1986" inkscape:connector-curvature="0" sodipodi:nodetypes="scscscs"/>
              <path sodipodi:nodetypes="scscscs" inkscape:connector-curvature="0" id="path1988" d="m -1269.333622441759,605.9091924555588 c 1.952283674467,2.5334249902697 4.404782687875,4.6798237460881 7.174216641915,6.2789053621194 -3.313146108184,1.9118073722909 -7.133364163239,2.9351738156819 -10.958315593878,2.9352084558561 -3.825083712941,3.46413724e-5 -7.645451773617,-1.0233348848128 -10.95832968345,-2.9352084034889 2.769816739429,-1.5990816683988 5.222315752836,-3.7454804242171 7.174599427303,-6.2789054144866 1.634426355625,-2.1209502636574 2.9187086956,-4.5110842205337 3.783914604055,-7.0446304931451 0.865205908455,2.5335462726114 2.149488248431,4.9236802294876 3.783914604055,7.0446304931451 z" style="fill:#dca600;fill-opacity:1;stroke:none;stroke-width:0.9403770566px;stroke-linecap:butt;stroke-linejoin:miter;stroke-opacity:1"/>
            </g>
            <g transform="rotate(-90,-1273.117728438508,474.0667438507723)" id="g1996" style="fill:#dca600;fill-opacity:1;stroke-width:3.5541810989">
              <path sodipodi:nodetypes="scscscs" inkscape:connector-curvature="0" id="path1992" d="m -1269.333622441759,342.2242952459632 c 1.952283674467,-2.5334249902698 4.404782687875,-4.6798237460881 7.174216641915,-6.2789053621194 -3.313146108184,-1.911807372291 -7.133364163239,-2.9351738156819 -10.958315593878,-2.9352084558563 -3.825083712941,-3.46413724e-5 -7.645451773617,1.0233348848129 -10.95832968345,2.9352084034889 2.769816739429,1.599081668399 5.222315752836,3.7454804242173 7.174599427303,6.2789054144868 1.634426355625,2.1209502636575 2.9187086956,4.5110842205337 3.783914604055,7.044630493145 0.865205908455,-2.5335462726113 2.149488248431,-4.9236802294875 3.783914604055,-7.044630493145 z" style="fill:#dca600;fill-opacity:1;stroke:none;stroke-width:0.9403770566px;stroke-linecap:butt;stroke-linejoin:miter;stroke-opacity:1"/>
              <path style="fill:#dca600;fill-opacity:1;stroke:none;stroke-width:0.9403770566px;stroke-linecap:butt;stroke-linejoin:miter;stroke-opacity:1" d="m -1269.333622441759,605.9091924555588 c 1.952283674467,2.5334249902697 4.404782687875,4.6798237460881 7.174216641915,6.2789053621194 -3.313146108184,1.9118073722909 -7.133364163239,2.9351738156819 -10.958315593878,2.9352084558561 -3.825083712941,3.46413724e-5 -7.645451773617,-1.0233348848128 -10.95832968345,-2.9352084034889 2.769816739429,-1.5990816683988 5.222315752836,-3.7454804242171 7.174599427303,-6.2789054144866 1.634426355625,-2.1209502636574 2.9187086956,-4.5110842205337 3.783914604055,-7.0446304931451 0.865205908455,2.5335462726114 2.149488248431,4.9236802294876 3.783914604055,7.0446304931451 z" id="path1994" inkscape:connector-curvature="0" sodipodi:nodetypes="scscscs"/>
            </g>
          </g>
          <g id="g2012" transform="rotate(67.5,-1273.117747698803,474.0667358778621)" style="fill:#dca600;fill-opacity:1;stroke-width:3.5541810989">
            <g id="g2004" style="fill:#dca600;fill-opacity:1;stroke-width:3.5541810989">
              <path sodipodi:nodetypes="scscscs" inkscape:connector-curvature="0" id="path2000" d="m -1269.333622441759,342.2242952459632 c 1.952283674467,-2.5334249902698 4.404782687875,-4.6798237460881 7.174216641915,-6.2789053621194 -3.313146108184,-1.911807372291 -7.133364163239,-2.9351738156819 -10.958315593878,-2.9352084558563 -3.825083712941,-3.46413724e-5 -7.645451773617,1.0233348848129 -10.95832968345,2.9352084034889 2.769816739429,1.599081668399 5.222315752836,3.7454804242173 7.174599427303,6.2789054144868 1.634426355625,2.1209502636575 2.9187086956,4.5110842205337 3.783914604055,7.044630493145 0.865205908455,-2.5335462726113 2.149488248431,-4.9236802294875 3.783914604055,-7.044630493145 z" style="fill:#dca600;fill-opacity:1;stroke:none;stroke-width:0.9403770566px;stroke-linecap:butt;stroke-linejoin:miter;stroke-opacity:1"/>
              <path style="fill:#dca600;fill-opacity:1;stroke:none;stroke-width:0.9403770566px;stroke-linecap:butt;stroke-linejoin:miter;stroke-opacity:1" d="m -1269.333622441759,605.9091924555588 c 1.952283674467,2.5334249902697 4.404782687875,4.6798237460881 7.174216641915,6.2789053621194 -3.313146108184,1.9118073722909 -7.133364163239,2.9351738156819 -10.958315593878,2.9352084558561 -3.825083712941,3.46413724e-5 -7.645451773617,-1.0233348848128 -10.95832968345,-2.9352084034889 2.769816739429,-1.5990816683988 5.222315752836,-3.7454804242171 7.174599427303,-6.2789054144866 1.634426355625,-2.1209502636574 2.9187086956,-4.5110842205337 3.783914604055,-7.0446304931451 0.865205908455,2.5335462726114 2.149488248431,4.9236802294876 3.783914604055,7.0446304931451 z" id="path2002" inkscape:connector-curvature="0" sodipodi:nodetypes="scscscs"/>
            </g>
            <g id="g2010" transform="rotate(-90,-1273.117728438508,474.0667438507726)" style="fill:#dca600;fill-opacity:1;stroke-width:3.5541810989">
              <path style="fill:#dca600;fill-opacity:1;stroke:none;stroke-width:0.9403770566px;stroke-linecap:butt;stroke-linejoin:miter;stroke-opacity:1" d="m -1269.333622441759,342.2242952459632 c 1.952283674467,-2.5334249902698 4.404782687875,-4.6798237460881 7.174216641915,-6.2789053621194 -3.313146108184,-1.911807372291 -7.133364163239,-2.9351738156819 -10.958315593878,-2.9352084558563 -3.825083712941,-3.46413724e-5 -7.645451773617,1.0233348848129 -10.95832968345,2.9352084034889 2.769816739429,1.599081668399 5.222315752836,3.7454804242173 7.174599427303,6.2789054144868 1.634426355625,2.1209502636575 2.9187086956,4.5110842205337 3.783914604055,7.044630493145 0.865205908455,-2.5335462726113 2.149488248431,-4.9236802294875 3.783914604055,-7.044630493145 z" id="path2006" inkscape:connector-curvature="0" sodipodi:nodetypes="scscscs"/>
              <path sodipodi:nodetypes="scscscs" inkscape:connector-curvature="0" id="path2008" d="m -1269.333622441759,605.9091924555588 c 1.952283674467,2.5334249902697 4.404782687875,4.6798237460881 7.174216641915,6.2789053621194 -3.313146108184,1.9118073722909 -7.133364163239,2.9351738156819 -10.958315593878,2.9352084558561 -3.825083712941,3.46413724e-5 -7.645451773617,-1.0233348848128 -10.95832968345,-2.9352084034889 2.769816739429,-1.5990816683988 5.222315752836,-3.7454804242171 7.174599427303,-6.2789054144866 1.634426355625,-2.1209502636574 2.9187086956,-4.5110842205337 3.783914604055,-7.0446304931451 0.865205908455,2.5335462726114 2.149488248431,4.9236802294876 3.783914604055,7.0446304931451 z" style="fill:#dca600;fill-opacity:1;stroke:none;stroke-width:0.9403770566px;stroke-linecap:butt;stroke-linejoin:miter;stroke-opacity:1"/>
            </g>
          </g>
        </g>
      </g>
    </g>
  </g>
</svg>